<svg xmlns="http://www.w3.org/2000/svg" width="114" height="40" fill="none" viewBox="0 0 114 40">
    <rect width="113.571" height="40" fill="#e5ecf4" rx="4" />
    <path fill="#495567" fill-rule="evenodd"
        d="M67.487 30.7a5 5 0 0 1-1.514.214q-.986 0-1.736-.278a3.5 3.5 0 0 1-1.25-.772 3.26 3.26 0 0 1-.757-1.157 4 4 0 0 1-.257-1.45v-.428h1.885v.343q0 .9.522 1.435.522.536 1.621.536.857 0 1.272-.372.414-.37.414-.885 0-.243-.086-.464a1 1 0 0 0-.3-.4 2.1 2.1 0 0 0-.585-.322 5 5 0 0 0-.943-.243 9.6 9.6 0 0 1-1.386-.335 3.9 3.9 0 0 1-1.093-.55 2.4 2.4 0 0 1-.721-.858q-.257-.513-.257-1.257v-.085q0-.614.25-1.136t.7-.907 1.085-.6a4.4 4.4 0 0 1 1.422-.215q.885 0 1.571.25t1.15.679q.465.429.7.986.236.557.236 1.171v.514h-1.886v-.343q0-.6-.464-1.042-.465-.443-1.307-.443-.715 0-1.129.293a.92.92 0 0 0-.414.793q0 .257.1.464a.95.95 0 0 0 .35.371q.25.165.657.293.407.129 1.036.243 1.57.286 2.4.957.828.672.828 1.986v.171q0 .7-.25 1.265a2.7 2.7 0 0 1-.721.964 3.3 3.3 0 0 1-1.143.614m-28.158.014.486-2.142h3.4l.485 2.142h1.972l-2.386-10h-3.543l-2.386 10zm3.471-3.942h-2.585l1.171-5.115h.257zm4.991 2.914v3.886h-1.8v-9.943h1.8v1.028h.257q.285-.586.829-.907.543-.321 1.386-.321.628 0 1.192.243.565.242.986.707t.671 1.135.25 1.529v.257q0 .871-.242 1.543a3.4 3.4 0 0 1-.657 1.136q-.415.465-.979.7a3.1 3.1 0 0 1-1.221.235q-.486 0-.843-.1a2.3 2.3 0 0 1-.622-.271 1.9 1.9 0 0 1-.443-.393 3 3 0 0 1-.307-.464zm1.886-.486q-.843 0-1.364-.536t-.522-1.407v-.171q0-.871.522-1.407.52-.536 1.364-.536.843 0 1.364.521.522.522.522 1.422v.171q0 .9-.522 1.422-.52.52-1.364.521m6.22.486v3.886h-1.8v-9.943h1.8v1.028h.256q.285-.586.829-.907.543-.321 1.386-.321.628 0 1.192.243.565.242.986.707t.672 1.135.25 1.529v.257q0 .871-.243 1.543a3.4 3.4 0 0 1-.657 1.136q-.415.465-.979.7a3.1 3.1 0 0 1-1.221.235q-.486 0-.843-.1a2.3 2.3 0 0 1-.622-.271 1.9 1.9 0 0 1-.442-.393 3 3 0 0 1-.308-.464zm1.885-.486q-.843 0-1.364-.536t-.522-1.407v-.171q0-.871.522-1.407.52-.536 1.364-.536.843 0 1.364.521.522.522.522 1.422v.171q0 .9-.522 1.422-.52.52-1.364.521m18.896 1.514V29h-1.915q-.385 0-.385-.428v-3.229h2.557v-1.714h-2.557v-2.915h-1.8v2.915h-2.1v1.714h2.1V29.6q0 .485.307.8.307.314.793.314zm6.755-.042a4 4 0 0 1-1.393.242q-.729 0-1.393-.242a3.6 3.6 0 0 1-1.178-.708 3.3 3.3 0 0 1-.815-1.142q-.3-.679-.3-1.565v-.171q0-.872.3-1.55.3-.68.815-1.15a3.5 3.5 0 0 1 1.178-.714 4 4 0 0 1 1.393-.243q.729 0 1.393.243.665.243 1.178.714.515.472.815 1.15t.3 1.55v.171q0 .886-.3 1.564a3.3 3.3 0 0 1-.814 1.143 3.6 3.6 0 0 1-1.18.708M82.04 29.2q-.386 0-.729-.128a1.8 1.8 0 0 1-.6-.372 1.8 1.8 0 0 1-.407-.593q-.15-.35-.15-.793v-.285q0-.444.15-.793t.407-.593.6-.372q.344-.128.73-.128.385 0 .728.128.342.129.6.372t.407.593.15.793v.285q0 .444-.15.793t-.407.593a1.8 1.8 0 0 1-.6.372 2 2 0 0 1-.729.128m9.22-.2v1.714h-4.886V29h1.457v-3.657h-1.286v-1.714h3v1.028h.257q.2-.586.679-.907.478-.321 1.15-.321 1.057 0 1.7.664.642.665.643 2.021v.315l-1.857.171v-.2q0-.585-.3-.936-.3-.35-.9-.35t-.943.415-.343 1.185V29zm7.062 1.914q.699 0 1.221-.157t.886-.4.593-.535q.228-.294.357-.565l-1.543-.857q-.157.33-.514.564-.357.237-1.029.236a2 2 0 0 1-.65-.107 1.8 1.8 0 0 1-.543-.3 1.391 1.391 0 0 1-.522-1.036h5.201V26.8q0-.557-.2-1.15a3.2 3.2 0 0 0-.629-1.086 3.4 3.4 0 0 0-1.085-.814q-.657-.321-1.572-.321-.743 0-1.393.264a3.37 3.37 0 0 0-1.9 1.878 3.8 3.8 0 0 0-.278 1.486v.086q0 .885.264 1.586.264.7.743 1.185t1.136.743 1.457.257m-1.715-4.7h3.343q-.085-.5-.535-.828-.45-.33-1.136-.329-.686 0-1.114.35-.429.351-.558.807M51.826 9.604a.66.66 0 0 1-.526 0 .7.7 0 0 1-.214-.143.673.673 0 0 1-.2-.482.673.673 0 0 1 .94-.625.7.7 0 0 1 .217.142q.093.09.147.215a.7.7 0 0 1 .053.268.67.67 0 0 1-.2.482.7.7 0 0 1-.218.143M38.479 12.5l-.243 1.072h-.986l1.193-5h1.771l1.193 5h-.986L40.18 12.5zm.2-.9h1.292l-.578-2.557h-.129zm5.552 1.972 1.014-3.543h-.971l-.836 3.114h-.128l-.836-3.114h-.971l1.014 3.543zm3.467-.04q-.257.14-.6.14a1.5 1.5 0 0 1-.604-.122q-.282-.12-.496-.357a1.7 1.7 0 0 1-.34-.572 2.2 2.2 0 0 1-.124-.764v-.114q0-.421.121-.757t.329-.572a1.408 1.408 0 0 1 1.071-.486q.379 0 .61.13a.9.9 0 0 1 .369.4h.128v-.43h.9V12.5q0 .214.193.214h.136v.857h-.614a.56.56 0 0 1-.397-.142.48.48 0 0 1-.154-.372h-.128q-.143.336-.4.475m-.4-.718a.8.8 0 0 1-.629-.26q-.235-.261-.235-.711v-.086q0-.45.235-.71a.8.8 0 0 1 .629-.261q.393 0 .628.26.236.261.236.711v.086q0 .45-.236.71a.8.8 0 0 1-.628.261m5.752-.1h-1.028V10.03h-2.014v.857h1.114v1.828h-1.2v.857h3.129zm2.982 0h1.157v.857h-3.3v-.857h1.243V9.43h-1.2V8.57h2.1zm3.224.957q.342 0 .6-.139.256-.14.4-.475h.128q0 .229.154.372a.56.56 0 0 0 .396.143h.614v-.858h-.135q-.193 0-.193-.214v-2.471h-.9v.428h-.129a.9.9 0 0 0-.367-.4q-.233-.129-.611-.128a1.4 1.4 0 0 0-1.072.485 1.8 1.8 0 0 0-.328.572 2.2 2.2 0 0 0-.122.757v.114q0 .428.125.765.126.335.34.57.214.237.496.358t.604.121m-.429-1.117q.236.26.629.26a.8.8 0 0 0 .628-.26q.236-.261.236-.711v-.086q0-.45-.236-.71a.8.8 0 0 0-.628-.261.8.8 0 0 0-.629.26q-.236.261-.236.711v.086q0 .45.236.71m5.174 1.117q.33 0 .61-.117.283-.119.49-.35a1.7 1.7 0 0 0 .329-.568q.12-.336.121-.772v-.128q0-.428-.125-.764a1.7 1.7 0 0 0-.336-.568 1.4 1.4 0 0 0-.493-.354 1.5 1.5 0 0 0-.596-.121q-.42 0-.693.16-.27.161-.414.454h-.129V8.57h-.9v5h.9v-.514h.129q.065.122.153.232.09.111.222.197.133.086.31.135.18.05.422.05m-.975-1.124q.26.267.682.267.421 0 .682-.26.261-.261.261-.711v-.086q0-.45-.26-.71-.262-.261-.683-.261-.42 0-.682.268-.26.268-.26.703v.086q0 .435.26.704m6.32.167H68.19V8.571h-2.1v.858h1.2v3.285h-1.243v.857h3.3zm3.05.879a2.1 2.1 0 0 1-.611.079q-.4 0-.729-.13a1.61 1.61 0 0 1-.94-.963 2.2 2.2 0 0 1-.131-.793v-.043q0-.408.139-.743a1.68 1.68 0 0 1 .95-.94 1.8 1.8 0 0 1 .696-.131q.457 0 .786.16.33.16.543.407.215.248.314.543.1.297.1.575v.479h-2.6a.7.7 0 0 0 .261.518.9.9 0 0 0 .271.15 1 1 0 0 0 .325.053q.336 0 .515-.117a.7.7 0 0 0 .257-.283l.771.429q-.064.135-.178.282a1.3 1.3 0 0 1-.297.268q-.182.12-.443.2m.203-2.271h-1.671a.8.8 0 0 1 .278-.404q.215-.175.557-.175t.568.164.268.415m7.951 2.228a2 2 0 0 1-.696.121q-.364 0-.696-.121a1.8 1.8 0 0 1-.59-.354 1.7 1.7 0 0 1-.407-.571q-.15-.34-.15-.782v-.086q0-.435.15-.775a1.7 1.7 0 0 1 .997-.932q.332-.12.696-.121.364 0 .697.121.33.121.589.357.257.236.407.575.15.34.15.775v.086q0 .443-.15.782-.15.34-.407.572a1.8 1.8 0 0 1-.59.353m-.696-.736q-.193 0-.364-.064a.876.876 0 0 1-.504-.482 1 1 0 0 1-.075-.397v-.142q0-.222.075-.397a.88.88 0 0 1 .504-.482 1 1 0 0 1 .364-.064q.193 0 .364.064a.876.876 0 0 1 .504.482q.075.175.075.397v.143q0 .221-.075.396a.88.88 0 0 1-.504.482 1 1 0 0 1-.364.064m3.324-1.085v1.843h-.9v-3.543h.9v.528h.129a.94.94 0 0 1 .392-.464q.272-.164.636-.164.257 0 .482.082t.397.253q.17.172.268.436.096.264.096.629v2.242h-.9v-2.014q0-.378-.182-.596-.181-.219-.525-.218-.4 0-.597.268-.195.268-.196.718m10.205.985h-.957q-.193 0-.193-.214v-1.614h1.279v-.857h-1.279V8.57h-.9v1.458h-1.05v.857h1.05v2.128q0 .244.154.4a.53.53 0 0 0 .396.158h1.5zm1.967-.985v1.843h-.9v-5h.9V10.6h.129q.135-.322.4-.496.263-.175.65-.175.264 0 .485.085t.386.258q.164.17.257.439.093.267.093.632v2.229h-.9v-2.015q0-.378-.182-.596-.183-.219-.525-.218-.4 0-.597.268t-.196.718m4.803 1.943q.35 0 .61-.08.261-.078.443-.2.182-.12.297-.267t.178-.282l-.771-.429a.7.7 0 0 1-.257.283q-.179.117-.515.117a1 1 0 0 1-.325-.053.9.9 0 0 1-.271-.15.696.696 0 0 1-.26-.518h2.599v-.479q0-.278-.1-.575a1.6 1.6 0 0 0-.314-.543 1.7 1.7 0 0 0-.543-.407 1.8 1.8 0 0 0-.786-.16q-.371 0-.696.132-.325.131-.568.368-.244.235-.382.571-.14.336-.14.743v.043q0 .443.133.793.132.35.371.592.24.243.568.372t.729.129m-.858-2.35h1.672a.64.64 0 0 0-.268-.415.94.94 0 0 0-.568-.164q-.342 0-.557.175a.8.8 0 0 0-.279.404M21.107 11.595c.706-.862 1.917-1.524 2.953-1.595.173 1.178-.306 2.332-.94 3.147-.678.876-1.848 1.553-2.98 1.518-.206-1.128.324-2.289.967-3.07m3.19 3.072c1.38 0 2.84.745 3.878 2.03-3.406 1.853-2.854 6.68.587 7.973-.473 1.04-.7 1.505-1.31 2.427-.851 1.286-2.05 2.89-3.537 2.9-.612.007-1.013-.176-1.446-.373-.501-.228-1.045-.475-2.007-.47-.956.005-1.509.25-2.017.474-.444.196-.854.378-1.47.372-1.487-.013-2.623-1.459-3.474-2.745-2.378-3.595-2.63-7.815-1.162-10.06 1.044-1.594 2.69-2.526 4.236-2.526.824 0 1.488.235 2.12.459.577.204 1.127.398 1.748.398.575 0 1.048-.177 1.563-.371.619-.233 1.299-.488 2.292-.488"
        clip-rule="evenodd" />
</svg>