<svg xmlns="http://www.w3.org/2000/svg" width="56" height="56" fill="none" viewBox="0 0 56 56">
    <circle cx="28" cy="28" r="28" fill="#fcb72b" />
    <path fill="#495567" fill-rule="evenodd"
        d="M31.383 14H19.256a2.335 2.335 0 0 0-2.332 2.332v23.321a2.335 2.335 0 0 0 2.332 2.332h11.66v-.834a10.6 10.6 0 0 1 1.788-5.903.47.47 0 0 0-.058-.589l-3.265-3.265a1.513 1.513 0 0 1 .11-2.239 1.57 1.57 0 0 1 2.09.161l4.603 4.604.66-.66-3.129-3.128v-13.8A2.335 2.335 0 0 0 31.383 14m1.4 15.199-.543-.543a2.51 2.51 0 0 0-3.342-.221 2.446 2.446 0 0 0-.177 3.619l3 2.999a11.53 11.53 0 0 0-1.734 6h-10.73a1.4 1.4 0 0 1-1.4-1.4v-1.4h11.66v-.932h-11.66V17.73h14.926zm-14.926-12.4h14.926v-.467a1.4 1.4 0 0 0-1.4-1.4H19.256a1.4 1.4 0 0 0-1.399 1.4zm17.234 8.051-.63.688 2.861 2.622a3.27 3.27 0 0 1 1.057 2.407v11.418h.933V30.567a4.2 4.2 0 0 0-1.36-3.095zm-15.368-2.455h1.866a.933.933 0 0 0 .932-.932v-1.866a.933.933 0 0 0-.933-.933h-1.865a.933.933 0 0 0-.933.933v1.866c0 .515.418.932.933.932m0-2.798h1.866v1.866h-1.866zm6.53 2.798h-1.866a.933.933 0 0 1-.933-.932v-1.866c0-.515.418-.933.933-.933h1.866c.515 0 .933.418.933.933v1.866a.933.933 0 0 1-.933.932m0-2.798h-1.866v1.866h1.866zm2.798 2.798h1.866a.933.933 0 0 0 .933-.932v-1.866a.933.933 0 0 0-.933-.933H29.05a.933.933 0 0 0-.933.933v1.866c0 .515.418.932.933.932m0-2.798h1.866v1.866H29.05zM21.59 27.06h-1.866a.933.933 0 0 1-.933-.933V24.26c0-.515.418-.933.933-.933h1.866c.515 0 .932.418.932.933v1.866a.933.933 0 0 1-.933.933m0-2.799h-1.866v1.866h1.866zm-1.866 7.463h1.866a.933.933 0 0 0 .932-.933v-1.866a.933.933 0 0 0-.933-.933h-1.865a.933.933 0 0 0-.933.933v1.866c0 .515.418.933.933.933m0-2.799h1.866v1.866h-1.866zm6.53-1.865h-1.866a.933.933 0 0 1-.933-.933V24.26c0-.515.418-.933.933-.933h1.866c.515 0 .933.418.933.933v1.866a.933.933 0 0 1-.933.933m0-2.799h-1.866v1.866h1.866zm2.798 2.799h1.866a.933.933 0 0 0 .933-.933V24.26a.933.933 0 0 0-.933-.933H29.05a.933.933 0 0 0-.933.933v1.866c0 .515.418.933.933.933m0-2.799h1.866v1.866H29.05zm-2.798 7.463h-1.866a.933.933 0 0 1-.933-.933v-1.866c0-.515.418-.933.933-.933h1.866c.515 0 .933.418.933.933v1.866a.933.933 0 0 1-.933.933m0-2.799h-1.866v1.866h1.866zm-6.53 7.463h1.866a.933.933 0 0 0 .932-.933V33.59a.933.933 0 0 0-.933-.933h-1.865a.933.933 0 0 0-.933.933v1.865c0 .516.418.933.933.933m0-2.798h1.866v1.865h-1.866zm6.53 2.798h-1.866a.933.933 0 0 1-.933-.933V33.59c0-.516.418-.933.933-.933h1.866c.515 0 .933.417.933.933v1.865a.933.933 0 0 1-.933.933m0-2.798h-1.866v1.865h1.866zm-.467 5.597h-.933v.932h.933z"
        clip-rule="evenodd" />
</svg>