<svg xmlns="http://www.w3.org/2000/svg" width="76" height="20" fill="none" viewBox="0 0 76 20">
    <path fill="#495567" fill-rule="evenodd"
        d="M74.998 16.247v3.36h-5.882q-.952 0-1.555-.615-.602-.617-.602-1.569V9.076H62.84V5.714h4.118V0h3.53v5.714h5.013v3.362h-5.014v6.33q0 .84.757.84zM6.387 20q2.745 0 4.257-1.233 1.513-1.232 1.513-3.305v-.168q0-1.877-1.345-2.927T7.34 11.092q-1.849-.196-2.55-.49t-.7-.966q0-.477.449-.798.449-.323 1.344-.323.98 0 1.597.435.616.434.868 1.19l3.194-1.288a6.2 6.2 0 0 0-.645-1.219 4.9 4.9 0 0 0-1.092-1.148q-.672-.519-1.639-.84-.966-.323-2.283-.323-1.008 0-1.96.28a5.2 5.2 0 0 0-1.681.827 4.3 4.3 0 0 0-1.177 1.33q-.447.785-.448 1.82v.169q0 1.99 1.387 3.011 1.386 1.023 3.74 1.219.867.083 1.442.224.574.14.91.35t.462.448.126.518q0 .477-.49.883-.49.405-1.806.406-1.485 0-2.2-.672a3.2 3.2 0 0 1-.938-1.57L0 15.63q.14.729.546 1.499t1.163 1.4 1.904 1.05T6.387 20m15.724 0q2.97 0 4.748-1.513t2.255-3.977l-3.474-.868q-.252 1.372-1.106 2.184t-2.48.813q-.755 0-1.428-.238a3.3 3.3 0 0 1-1.176-.715 3.4 3.4 0 0 1-.799-1.19q-.294-.715-.294-1.639v-.168q0-.924.294-1.667.295-.742.799-1.26a3.5 3.5 0 0 1 1.176-.798q.672-.28 1.429-.28 1.625 0 2.52.896a3.63 3.63 0 0 1 1.065 2.129l3.474-.897q-.477-2.465-2.283-3.977t-4.72-1.513a8 8 0 0 0-2.843.504 6.8 6.8 0 0 0-2.325 1.457 6.7 6.7 0 0 0-1.555 2.297q-.56 1.344-.56 3.025v.336q0 1.68.56 2.997a6.3 6.3 0 0 0 1.54 2.213 6.8 6.8 0 0 0 2.312 1.373 8.5 8.5 0 0 0 2.87.476m18.455-.476a7.9 7.9 0 0 1-2.73.476 7.9 7.9 0 0 1-2.732-.476 7 7 0 0 1-2.31-1.387 6.5 6.5 0 0 1-1.597-2.24q-.59-1.332-.589-3.068v-.336q0-1.709.588-3.04A6.7 6.7 0 0 1 32.794 7.2a6.9 6.9 0 0 1 2.311-1.4 7.9 7.9 0 0 1 2.731-.477 7.9 7.9 0 0 1 2.731.476 6.9 6.9 0 0 1 2.311 1.4 6.7 6.7 0 0 1 1.597 2.256q.588 1.33.588 3.039v.336q0 1.737-.588 3.067a6.5 6.5 0 0 1-1.597 2.241 7 7 0 0 1-2.31 1.387m-2.73-2.885q-.757 0-1.43-.252a3.5 3.5 0 0 1-1.176-.729 3.4 3.4 0 0 1-.798-1.162q-.294-.687-.294-1.555v-.56q0-.868.294-1.555t.798-1.162q.504-.477 1.177-.728a4 4 0 0 1 1.428-.253q.756 0 1.429.253.672.252 1.176.728t.799 1.162.294 1.555v.56q0 .869-.294 1.555a3.4 3.4 0 0 1-.799 1.162q-.504.476-1.176.729a4 4 0 0 1-1.429.252m18.623 2.885a7.9 7.9 0 0 1-2.732.476 7.9 7.9 0 0 1-2.73-.476 7 7 0 0 1-2.312-1.387 6.5 6.5 0 0 1-1.596-2.24q-.588-1.332-.588-3.068v-.336q0-1.709.588-3.04A6.7 6.7 0 0 1 48.685 7.2a6.9 6.9 0 0 1 2.311-1.4 7.9 7.9 0 0 1 2.731-.477q1.429 0 2.732.476a6.9 6.9 0 0 1 2.31 1.4 6.7 6.7 0 0 1 1.597 2.256q.588 1.33.588 3.039v.336q0 1.737-.588 3.067a6.5 6.5 0 0 1-1.596 2.241 7 7 0 0 1-2.311 1.387m-2.732-2.885q-.756 0-1.428-.252a3.5 3.5 0 0 1-1.177-.729 3.4 3.4 0 0 1-.798-1.162q-.294-.687-.294-1.555v-.56q0-.868.294-1.555a3.4 3.4 0 0 1 .798-1.162q.505-.477 1.177-.728a4 4 0 0 1 1.428-.253q.756 0 1.43.253.671.252 1.176.728t.798 1.162q.294.687.294 1.555v.56q0 .869-.294 1.555a3.4 3.4 0 0 1-.798 1.162q-.505.476-1.177.729a4 4 0 0 1-1.428.252"
        clip-rule="evenodd" />
</svg>