<svg xmlns="http://www.w3.org/2000/svg" width="130" height="40" fill="none" viewBox="0 0 130 40">
    <rect width="130" height="40" fill="#e5ecf4" rx="4" />
    <path fill="#495567" fill-rule="evenodd"
        d="M42.514 30.536q-.486.378-1.457.378a3.2 3.2 0 0 1-1.285-.257 2.9 2.9 0 0 1-1.043-.764 3.7 3.7 0 0 1-.7-1.257q-.258-.75-.258-1.75v-2.343q0-.971.28-1.721.278-.75.77-1.265a3.2 3.2 0 0 1 1.18-.778 4.2 4.2 0 0 1 1.513-.265q.858 0 1.529.279t1.143.771q.471.494.714 1.157.243.665.243 1.422v.171h-1.886v-.171q0-.9-.464-1.364-.465-.465-1.307-.465-.801 0-1.314.536-.515.536-.515 1.836V26.8q0 2.314 1.886 2.314.843 0 1.279-.45t.435-1.207h-2.4v-1.8h4.286v5.057h-1.714V29.6h-.258a1.86 1.86 0 0 1-.657.936m8.498.136a4 4 0 0 1-1.393.242q-.728 0-1.392-.242a3.6 3.6 0 0 1-1.179-.708 3.3 3.3 0 0 1-.814-1.142q-.3-.679-.3-1.565v-.171q0-.872.3-1.55.3-.68.814-1.15a3.5 3.5 0 0 1 1.179-.714 4 4 0 0 1 1.392-.243q.729 0 1.393.243t1.179.714.814 1.15.3 1.55v.171q0 .886-.3 1.564-.3.68-.814 1.143a3.6 3.6 0 0 1-1.179.708M49.62 29.2q-.386 0-.728-.128a1.8 1.8 0 0 1-.6-.372 1.8 1.8 0 0 1-.407-.593q-.15-.35-.15-.793v-.285q0-.444.15-.793t.407-.593q.256-.243.6-.372.342-.128.728-.128t.729.128q.344.129.6.372.257.243.407.593t.15.793v.285q0 .444-.15.793t-.407.593a1.8 1.8 0 0 1-.6.372 2 2 0 0 1-.729.128m9.498 1.472a4 4 0 0 1-1.392.242q-.729 0-1.393-.242a3.6 3.6 0 0 1-1.179-.708 3.3 3.3 0 0 1-.814-1.142q-.3-.679-.3-1.565v-.171q0-.872.3-1.55.3-.68.814-1.15a3.5 3.5 0 0 1 1.179-.714 4 4 0 0 1 1.392-.243q.729 0 1.393.243t1.179.714.814 1.15.3 1.55v.171q0 .886-.3 1.564-.3.68-.814 1.143a3.6 3.6 0 0 1-1.179.708M57.725 29.2q-.386 0-.729-.128a1.8 1.8 0 0 1-.6-.372 1.8 1.8 0 0 1-.407-.593q-.15-.35-.15-.793v-.285q0-.444.15-.793t.407-.593.6-.372.728-.128.73.128.6.372q.255.243.406.593.15.35.15.793v.285q0 .444-.15.793t-.407.593a1.8 1.8 0 0 1-.6.372 2 2 0 0 1-.729.128m11.398 4.057q-.308.315-.793.315h-4.772v-1.715h3.686q.386 0 .386-.428v-1.743h-.257a2.7 2.7 0 0 1-.28.464 1.6 1.6 0 0 1-.428.393 2.2 2.2 0 0 1-.628.271q-.364.1-.879.1-.657 0-1.221-.235a2.75 2.75 0 0 1-.986-.7q-.42-.464-.657-1.136-.236-.672-.236-1.543v-.257q0-.858.25-1.529a3.3 3.3 0 0 1 .686-1.135q.436-.465 1.014-.707a3.1 3.1 0 0 1 1.222-.243q.856 0 1.357.321.5.321.785.907h.258V23.63h1.8v8.828q0 .486-.308.8m-3.38-4.057q-.842 0-1.363-.521-.522-.522-.522-1.422v-.171q0-.9.522-1.422.52-.52 1.364-.521.843 0 1.364.536.522.535.522 1.407v.171q0 .872-.522 1.407-.52.536-1.364.536m11.492-.2v1.714h-6.6V29h2.486V22.43h-2.4v-1.715h4.2V29zm4.876 1.914q.7 0 1.222-.157.521-.157.885-.4t.593-.535q.23-.294.357-.565l-1.542-.857q-.158.33-.515.564-.356.237-1.028.236a2 2 0 0 1-.65-.107 1.8 1.8 0 0 1-.543-.3 1.388 1.388 0 0 1-.522-1.036h5.2V26.8q0-.557-.2-1.15a3.2 3.2 0 0 0-.628-1.086 3.4 3.4 0 0 0-1.086-.814q-.657-.321-1.571-.321-.743 0-1.393.264a3.37 3.37 0 0 0-1.9 1.878 3.8 3.8 0 0 0-.279 1.486v.086q0 .885.265 1.586.264.7.742 1.185.48.486 1.136.743.657.258 1.457.257m-1.714-4.7h3.343q-.086-.5-.536-.828-.45-.33-1.136-.329-.685 0-1.114.35-.428.351-.557.807m8.29 4.5v-3.771h2.03q.77 0 1.342-.257a2.8 2.8 0 0 0 .95-.679q.379-.42.572-.957.192-.535.192-1.093v-.343q0-.542-.192-1.064a2.8 2.8 0 0 0-.572-.928 2.8 2.8 0 0 0-.95-.658q-.57-.25-1.343-.25h-3.914v10zm0-5.571h1.844q.629 0 .992-.343.365-.343.365-.886v-.171q0-.543-.365-.886-.363-.342-.992-.343h-1.843zm12.863 5.571V29h-2.314v-8.286h-4.2v1.715h2.4V29H94.95v1.714zm5.334-.078q-.515.279-1.2.278-.643 0-1.207-.242a2.85 2.85 0 0 1-.993-.715 3.5 3.5 0 0 1-.679-1.143q-.25-.671-.25-1.528v-.229q0-.842.243-1.514t.657-1.143a2.8 2.8 0 0 1 .964-.721q.55-.25 1.179-.25.757 0 1.221.257t.736.8h.257v-.857h1.8v4.942q0 .43.386.43h.271v1.713h-1.228q-.486 0-.793-.285a.97.97 0 0 1-.307-.743h-.257q-.286.671-.8.95m-.8-1.436q-.786 0-1.257-.521-.472-.522-.472-1.422v-.171q0-.9.472-1.422.471-.52 1.257-.521.786 0 1.257.521.471.522.471 1.422v.171q0 .9-.471 1.422-.471.52-1.257.521m11.412 4.057q-.307.315-.793.315h-4.214v-1.715h3.128q.386 0 .386-.428v-1.743h-.257q-.47 1.228-2.029 1.228-.528 0-.985-.171a2.1 2.1 0 0 1-.8-.529 2.5 2.5 0 0 1-.536-.892q-.193-.537-.193-1.265V23.63h1.8v4.057q0 .758.357 1.178.357.422 1.072.422.814 0 1.193-.522.378-.52.378-1.421v-3.714h1.8v8.828q0 .486-.307.8M55.618 9.657q.135 0 .26-.053a.7.7 0 0 0 .218-.143.673.673 0 0 0 .2-.482.67.67 0 0 0-.2-.483.72.72 0 0 0-.478-.196.65.65 0 0 0-.265.054.7.7 0 0 0-.214.142.673.673 0 0 0-.2.482.673.673 0 0 0 .679.68m-15.79 3.825q-.242.19-.728.19-.343 0-.642-.13a1.4 1.4 0 0 1-.522-.381 1.9 1.9 0 0 1-.35-.629 2.7 2.7 0 0 1-.128-.875v-1.171q0-.486.139-.861t.386-.632.589-.39a2.1 2.1 0 0 1 .757-.132q.428 0 .764.14.335.14.572.385.236.248.357.579.12.332.121.71v.086H40.2v-.085q0-.45-.232-.682t-.653-.233a.87.87 0 0 0-.657.268q-.258.268-.258.918v1.057q0 1.158.943 1.157.421 0 .64-.225.217-.224.217-.603H39v-.9h2.143v2.529h-.857v-.558h-.129a.93.93 0 0 1-.328.468m4.2.11a2.1 2.1 0 0 1-.61.08q-.4 0-.73-.13a1.61 1.61 0 0 1-.939-.963 2.2 2.2 0 0 1-.132-.793v-.043q0-.408.14-.743a1.69 1.69 0 0 1 .95-.94 1.8 1.8 0 0 1 .696-.131q.458 0 .786.16.329.16.542.407.214.248.315.543.1.297.1.575v.479h-2.6a.7.7 0 0 0 .26.518.9.9 0 0 0 .272.15 1 1 0 0 0 .325.053q.336 0 .514-.117a.7.7 0 0 0 .257-.283l.772.429q-.065.135-.179.282a1.3 1.3 0 0 1-.296.268q-.183.12-.443.2m.203-2.27h-1.67a.8.8 0 0 1 .278-.404q.213-.175.557-.175.342 0 .568.164.225.165.267.415m4.575 1.392v.857h-1.5a.53.53 0 0 1-.55-.557v-2.128h-1.05v-.857h1.05V8.57h.9v1.458h1.278v.857h-1.278V12.5q0 .214.192.214zm8.297 0v.857h-3.128v-.857h1.2v-1.828H54.06v-.857h2.014v2.685zm3.86.857v-.857h-.957q-.193 0-.193-.214v-1.614h1.279v-.857h-1.279V8.57h-.9v1.458h-1.05v.857h1.05v2.128q0 .244.154.4a.53.53 0 0 0 .396.158zm7.43-.021a2 2 0 0 1-.696.121A2 2 0 0 1 67 13.55a1.8 1.8 0 0 1-.589-.354 1.7 1.7 0 0 1-.407-.571q-.15-.34-.15-.782v-.086q0-.435.15-.775A1.7 1.7 0 0 1 67 10.05q.333-.12.697-.121.364 0 .696.121t.59.357.407.575.15.775v.086q0 .443-.15.782-.15.34-.407.572a1.8 1.8 0 0 1-.59.353m-.696-.736q-.193 0-.365-.064a.876.876 0 0 1-.504-.482 1 1 0 0 1-.074-.397v-.142q0-.222.075-.397a.88.88 0 0 1 .504-.482 1 1 0 0 1 .364-.064q.192 0 .364.064a.876.876 0 0 1 .504.482q.075.175.075.397v.143q0 .221-.075.396a.88.88 0 0 1-.504.482 1 1 0 0 1-.364.064m3.324-1.085v1.843h-.9v-3.543h.9v.528h.128a.94.94 0 0 1 .393-.464q.271-.164.636-.164.257 0 .482.082t.397.253.267.436.097.629v2.242h-.9v-2.014q0-.378-.182-.596-.183-.219-.525-.218-.4 0-.597.268-.195.268-.196.718M12.395 10.17a1.68 1.68 0 0 1 1.609.076l9.908 5.77-2.838 2.852zm-.966 1.56c0-.266.059-.524.168-.756l8.678 8.697-8.676 8.717a1.7 1.7 0 0 1-.17-.747zm9.647 8.743L12.41 29.18c.23.106.474.153.719.153.301 0 .602-.072.875-.236l9.91-5.779zm6.6-2.265.01.006c.512.31.817.853.817 1.452 0 .6-.305 1.142-.817 1.453l-2.76 1.609-3.051-3.058 3.05-3.065z"
        clip-rule="evenodd" />
</svg>