<svg xmlns="http://www.w3.org/2000/svg" width="108" height="29" fill="none" viewBox="0 0 108 29">
    <path fill="#fff" fill-rule="evenodd"
        d="M107.097 23.2V28h-8.4q-1.36 0-2.22-.88t-.86-2.24V12.96h-5.88v-4.8h5.88V0h5.04v8.16h7.16v4.8h-7.16V22q0 1.2 1.08 1.2zM9.12 28.56q3.92 0 6.08-1.76t2.16-4.72v-.24q0-2.68-1.92-4.18t-4.96-1.82q-2.64-.28-3.64-.7t-1-1.38q0-.68.64-1.14t1.92-.46q1.4 0 2.28.62t1.24 1.7l4.56-1.84a8.8 8.8 0 0 0-.92-1.74q-.6-.9-1.56-1.64t-2.34-1.2T8.4 7.6q-1.44 0-2.8.4a7.5 7.5 0 0 0-2.4 1.18 6.2 6.2 0 0 0-1.68 1.9q-.64 1.12-.64 2.6v.24q0 2.84 1.98 4.3t5.34 1.74q1.24.12 2.06.32t1.3.5.66.64.18.74q0 .68-.7 1.26T9.12 24Q7 24 5.98 23.04T4.64 20.8L0 22.32q.2 1.04.78 2.14t1.66 2 2.72 1.5 3.96.6m22.454 0q4.24 0 6.78-2.16t3.22-5.68l-4.96-1.24q-.36 1.96-1.58 3.12t-3.54 1.16q-1.08 0-2.04-.34a4.7 4.7 0 0 1-1.68-1.02q-.72-.68-1.14-1.7t-.42-2.34v-.24q0-1.32.42-2.38t1.14-1.8a5 5 0 0 1 1.68-1.14 5.3 5.3 0 0 1 2.04-.4q2.32 0 3.6 1.28t1.52 3.04l4.96-1.28q-.68-3.52-3.26-5.68t-6.74-2.16q-2.16 0-4.06.72a9.7 9.7 0 0 0-3.32 2.08q-1.419 1.36-2.22 3.28-.8 1.92-.8 4.32v.48q0 2.4.8 4.28t2.2 3.16q1.401 1.28 3.3 1.96 1.9.68 4.1.68m26.355-.68q-1.86.68-3.9.68t-3.9-.68a10 10 0 0 1-3.3-1.98q-1.44-1.3-2.28-3.2t-.84-4.38v-.48q0-2.44.84-4.34t2.28-3.22a9.8 9.8 0 0 1 3.3-2q1.86-.68 3.9-.68t3.9.68a9.8 9.8 0 0 1 3.3 2q1.44 1.32 2.28 3.22t.84 4.34v.48q0 2.48-.84 4.38t-2.28 3.2a10 10 0 0 1-3.3 1.98m-3.9-4.12q-1.08 0-2.04-.36a4.95 4.95 0 0 1-1.68-1.04 4.9 4.9 0 0 1-1.14-1.66q-.42-.98-.42-2.22v-.8q0-1.24.42-2.22t1.14-1.66a4.95 4.95 0 0 1 1.68-1.04q.96-.36 2.04-.36t2.04.36 1.68 1.04 1.14 1.66.42 2.22v.8q0 1.24-.42 2.22a4.9 4.9 0 0 1-1.14 1.66q-.72.68-1.68 1.04t-2.04.36m26.594 4.12q-1.86.68-3.9.68t-3.9-.68a10 10 0 0 1-3.3-1.98q-1.44-1.3-2.28-3.2t-.84-4.38v-.48q0-2.44.84-4.34t2.28-3.22a9.8 9.8 0 0 1 3.3-2q1.86-.68 3.9-.68t3.9.68a9.8 9.8 0 0 1 3.3 2q1.44 1.32 2.28 3.22t.84 4.34v.48q0 2.48-.84 4.38t-2.28 3.2a10 10 0 0 1-3.3 1.98m-3.9-4.12q-1.08 0-2.04-.36a4.95 4.95 0 0 1-1.68-1.04 4.9 4.9 0 0 1-1.14-1.66q-.42-.98-.42-2.22v-.8q0-1.24.42-2.22t1.14-1.66a4.95 4.95 0 0 1 1.68-1.04q.96-.36 2.04-.36t2.04.36 1.68 1.04 1.14 1.66.42 2.22v.8q0 1.24-.42 2.22a4.9 4.9 0 0 1-1.14 1.66q-.72.68-1.68 1.04t-2.04.36"
        clip-rule="evenodd" />
</svg>